<?xml version="1.0" encoding="UTF-8" standalone="no"?>
<svg
   xmlns:osb="http://www.openswatchbook.org/uri/2009/osb"
   xmlns:dc="http://purl.org/dc/elements/1.1/"
   xmlns:cc="http://creativecommons.org/ns#"
   xmlns:rdf="http://www.w3.org/1999/02/22-rdf-syntax-ns#"
   xmlns:svg="http://www.w3.org/2000/svg"
   xmlns="http://www.w3.org/2000/svg"
   id="svg8"
   version="1.1"
   viewBox="0 0 256 256"
   height="256mm"
   width="256mm">
  <defs
     id="defs2">
    <linearGradient
       osb:paint="solid"
       id="linearGradient6009">
      <stop
         id="stop6007"
         offset="0"
         style="stop-color:#80ffff;stop-opacity:1;" />
    </linearGradient>
  </defs>
  <metadata
     id="metadata5">
    <rdf:RDF>
      <cc:Work
         rdf:about="">
        <dc:format>image/svg+xml</dc:format>
        <dc:type
           rdf:resource="http://purl.org/dc/dcmitype/StillImage" />
        <dc:title />
      </cc:Work>
    </rdf:RDF>
  </metadata>
  <g
     transform="translate(0,-41)"
     id="layer1">
    <path
       id="path4522"
       d="m 46.000132,66.999875 c 6.000133,-5.999868 18.000134,-5.999868 41.333466,-5.999868 23.333332,0 57.999992,0 81.333332,0 23.33334,0 35.38564,0 41.35935,5.973715 C 216,72.947438 216,84.888358 216,117.72006 c 0,32.83171 0,85.39848 0,115.39862 0,30.00015 0,36.94032 -6.0001,40.41082 -6.0001,3.47051 -17.9993,3.47051 -41.33328,3.47051 -23.33398,0 -57.99945,0 -81.332945,0 -23.333495,0 -35.333139,0 -41.333407,-6.00027 C 40,264.99947 40,253.0563 40,222.9149 c 0,-30.1414 0,-77.9154 0,-107.91525 0,-29.999848 0,-41.999907 6.000132,-47.999775 z"
       style="fill:#40ffff;stroke:#80ffff;stroke-width:0.26499999;stroke-linecap:butt;stroke-linejoin:miter;stroke-opacity:1;fill-opacity:1;stroke-miterlimit:4;stroke-dasharray:none;stroke-dashoffset:0;fill-rule:nonzero" />
    <ellipse
       cx="172.61205"
       cy="166.81674"
       rx="30.823763"
       ry="30.823767"
       id="path6051-3"
       style="opacity:1;fill:none;fill-opacity:1;fill-rule:nonzero;stroke:#ffffff;stroke-width:14.71897125;stroke-miterlimit:4;stroke-dasharray:none;stroke-dashoffset:0;stroke-opacity:1" />
    <path
       transform="matrix(1.3577657,0,0,1.5273003,-44.522742,-53.823735)"
       id="path6072"
       d="m 138.0243,149.00001 c -0.67481,-3.58354 -1.34962,-7.16712 -3.0201,-9.2525 -1.67049,-2.08538 -4.33714,-2.67334 -7.00394,-2.6734 -2.66681,-5e-5 -5.33293,0.58779 -6.96985,2.6736 -1.63692,2.08581 -2.24333,5.66866 -2.84986,9.2523"
       style="fill:none;stroke:#ffffff;stroke-width:9.18156242;stroke-linecap:butt;stroke-linejoin:miter;stroke-miterlimit:4;stroke-dasharray:none;stroke-opacity:1" />
    <flowRoot
       transform="matrix(0.26458333,0,0,0.26458333,0,41)"
       style="font-style:normal;font-variant:normal;font-weight:normal;font-stretch:normal;font-size:40px;line-height:1.25;font-family:Ubuntu;-inkscape-font-specification:Ubuntu;letter-spacing:0px;word-spacing:0px;fill:#000000;fill-opacity:1;stroke:none;"
       id="flowRoot6076"
       xml:space="preserve"><flowRegion
         style="-inkscape-font-specification:Ubuntu;font-family:Ubuntu;font-weight:normal;font-style:normal;font-stretch:normal;font-variant:normal;"
         id="flowRegion6078"><rect
           style="-inkscape-font-specification:Ubuntu;font-family:Ubuntu;font-weight:normal;font-style:normal;font-stretch:normal;font-variant:normal;"
           y="425.89243"
           x="310"
           height="76.666664"
           width="335"
           id="rect6080" /></flowRegion><flowPara
         id="flowPara6082" /></flowRoot>    <flowRoot
       style="fill:black;fill-opacity:1;stroke:none;font-family:SutonnySushreeMJ;font-style:normal;font-weight:normal;font-size:40px;line-height:1.25;letter-spacing:0px;word-spacing:0px;-inkscape-font-specification:SutonnySushreeMJ;font-stretch:normal;font-variant:normal"
       id="flowRoot6084"
       xml:space="preserve"><flowRegion
         id="flowRegion6086"><rect
           y="404.22574"
           x="316.66666"
           height="131.66667"
           width="326.66666"
           id="rect6088" /></flowRegion><flowPara
         id="flowPara6090" /></flowRoot>    <ellipse
       cx="84.558205"
       cy="165.6299"
       rx="31.781858"
       ry="31.781862"
       id="path6051"
       style="opacity:1;fill:none;fill-opacity:1;fill-rule:nonzero;stroke:#ffffff;stroke-width:15.1764822;stroke-miterlimit:4;stroke-dasharray:none;stroke-dashoffset:0;stroke-opacity:1" />
  </g>
</svg>
